<svg width="16" height="16" viewBox="0 0 16 16" fill="none" xmlns="http://www.w3.org/2000/svg">
<path d="M2 14H14" stroke="#6B7068" stroke-width="1.17" stroke-linecap="round" stroke-linejoin="round"/>
<path d="M10 5.33333C10 5.86377 10.2107 6.37247 10.5858 6.74755C10.9609 7.12262 11.4696 7.33333 12 7.33333C12.5304 7.33333 13.0391 7.12262 13.4142 6.74755C13.7893 6.37247 14 5.86377 14 5.33333V4.66667L12.6667 2H3.33333L2 4.66667V5.33333C2 5.86377 2.21071 6.37247 2.58579 6.74755C2.96086 7.12262 3.46957 7.33333 4 7.33333C4.53043 7.33333 5.03914 7.12262 5.41421 6.74755C5.78929 6.37247 6 5.86377 6 5.33333M2 4.66667H14M6 5.33333V4.66667M6 5.33333C6 5.86377 6.21071 6.37247 6.58579 6.74755C6.96086 7.12262 7.46957 7.33333 8 7.33333C8.53043 7.33333 9.03914 7.12262 9.41421 6.74755C9.78929 6.37247 10 5.86377 10 5.33333M10 5.33333V4.66667" stroke="#6B7068" stroke-width="1.17" stroke-linecap="round" stroke-linejoin="round"/>
<path d="M3.33398 14V7.33333M12.6673 14V7.33333" stroke="#6B7068" stroke-width="1.17" stroke-linecap="round" stroke-linejoin="round"/>
</svg>
