<svg width="16" height="16" viewBox="0 0 16 16" fill="none" xmlns="http://www.w3.org/2000/svg">
<path d="M4.66602 6.44467C4.66602 5.97311 4.85334 5.52087 5.18678 5.18743C5.52022 4.85399 5.97246 4.66667 6.44402 4.66667H12.2213C12.4548 4.66667 12.686 4.71266 12.9018 4.80201C13.1175 4.89136 13.3135 5.02233 13.4786 5.18743C13.6437 5.35253 13.7747 5.54854 13.864 5.76426C13.9534 5.97997 13.9993 6.21118 13.9993 6.44467V12.222C13.9993 12.4555 13.9534 12.6867 13.864 12.9024C13.7747 13.1181 13.6437 13.3141 13.4786 13.4792C13.3135 13.6443 13.1175 13.7753 12.9018 13.8647C12.686 13.954 12.4548 14 12.2213 14H6.44402C6.21053 14 5.97932 13.954 5.7636 13.8647C5.54789 13.7753 5.35188 13.6443 5.18678 13.4792C5.02168 13.3141 4.89071 13.1181 4.80136 12.9024C4.71201 12.6867 4.66602 12.4555 4.66602 12.222V6.44467Z" stroke="#6B7068" stroke-width="1.16667" stroke-linecap="round" stroke-linejoin="round"/>
<path d="M2.67467 11.158C2.47 11.0417 2.29977 10.8733 2.18127 10.6699C2.06277 10.4665 2.00023 10.2354 2 10V3.33333C2 2.6 2.6 2 3.33333 2H10C10.5 2 10.772 2.25667 11 2.66667" stroke="#6B7068" stroke-width="1.16667" stroke-linecap="round" stroke-linejoin="round"/>
</svg>
